<svg width="60" height="60" viewBox="0 0 60 60" fill="none" xmlns="http://www.w3.org/2000/svg">
  <!-- Background Circle -->
  <circle cx="30" cy="30" r="30" fill="#1e40af"/>
  
  <!-- Government Building Icon -->
  <g transform="translate(12, 15)">
    <!-- Building Base -->
    <rect x="2" y="20" width="32" height="8" fill="#fbbf24" rx="1"/>
    
    <!-- Main Building -->
    <rect x="6" y="8" width="24" height="20" fill="#ffffff" stroke="#1e40af" stroke-width="0.5"/>
    
    <!-- Columns -->
    <rect x="8" y="8" width="2" height="20" fill="#1e40af"/>
    <rect x="12" y="8" width="2" height="20" fill="#1e40af"/>
    <rect x="16" y="8" width="2" height="20" fill="#1e40af"/>
    <rect x="20" y="8" width="2" height="20" fill="#1e40af"/>
    <rect x="24" y="8" width="2" height="20" fill="#1e40af"/>
    <rect x="28" y="8" width="2" height="20" fill="#1e40af"/>
    
    <!-- Roof -->
    <polygon points="18,2 6,8 30,8" fill="#fbbf24"/>
    
    <!-- Flag -->
    <rect x="17" y="2" width="2" height="6" fill="#1e40af"/>
    <rect x="19" y="2" width="8" height="4" fill="#fbbf24"/>
    
    <!-- Door -->
    <rect x="16" y="18" width="4" height="10" fill="#1e40af" rx="0.5"/>
    
    <!-- Steps -->
    <rect x="4" y="26" width="28" height="2" fill="#64748b"/>
  </g>
  
  <!-- Brazil Colors Accent -->
  <circle cx="45" cy="15" r="3" fill="#fbbf24"/>
  <circle cx="48" cy="12" r="2" fill="#22c55e"/>
</svg>
